<?xml version="1.0" standalone="no"?>
<!DOCTYPE svg PUBLIC "-//W3C//DTD SVG 20010904//EN"
 "http://www.w3.org/TR/2001/REC-SVG-20010904/DTD/svg10.dtd">
<svg version="1.0" xmlns="http://www.w3.org/2000/svg"
 width="1280.000000pt" height="926.000000pt" viewBox="0 0 1280.000000 926.000000"
 preserveAspectRatio="xMidYMid meet">

<g transform="translate(0.000000,926.000000) scale(0.100000,-0.100000)"
fill="#00B37E" stroke="none">
<path d="M4907 8001 c-11 -53 -8 -132 8 -185 46 -152 159 -232 540 -384 238
-95 343 -143 448 -205 317 -188 492 -441 568 -822 l12 -60 17 90 c49 251 162
461 334 622 144 135 309 227 637 359 262 104 360 152 441 214 111 83 149 161
147 304 l-1 91 -10 -65 c-22 -161 -107 -251 -288 -309 -36 -12 -163 -43 -284
-71 l-218 -50 -67 61 c-133 122 -272 197 -460 246 -125 33 -330 37 -461 10
-169 -36 -342 -121 -476 -236 -72 -62 -82 -67 -109 -59 -17 4 -118 26 -225 49
-287 60 -385 96 -459 171 -50 51 -73 104 -80 188 -5 64 -8 70 -14 41z m1696
-361 c134 -20 297 -89 390 -166 l28 -23 -73 -37 c-169 -84 -317 -211 -412
-351 -27 -40 -52 -73 -55 -72 -3 0 -31 39 -61 86 -92 142 -238 272 -400 354
l-62 31 28 24 c68 56 221 123 324 143 115 23 191 25 293 11z"/>
<path d="M5481 7148 c-84 -262 -73 -482 35 -702 79 -160 187 -291 385 -471
220 -199 303 -312 348 -475 80 -288 -84 -592 -402 -744 -133 -64 -207 -80
-362 -81 -94 0 -148 5 -195 18 -77 21 -215 88 -215 105 0 6 41 59 90 118 254
299 384 519 446 751 41 150 24 378 -35 491 -12 22 -14 15 -19 -79 -13 -239
-92 -416 -319 -720 -141 -187 -244 -308 -381 -447 l-122 -122 69 -63 c108 -98
164 -137 262 -184 150 -71 222 -86 409 -87 102 -1 180 4 215 12 352 86 616
286 746 568 91 196 91 423 0 628 -62 139 -129 222 -381 471 -261 257 -318 330
-367 462 -56 149 -57 293 -3 456 13 39 20 75 17 79 -11 10 -172 78 -187 78 -8
0 -22 -27 -34 -62z"/>
<path d="M2230 3273 c0 -611 5 -658 93 -828 126 -244 417 -372 760 -335 301
33 489 159 582 392 56 141 58 160 62 741 l5 537 -191 0 -191 0 0 -495 c0 -536
-5 -596 -55 -695 -61 -120 -215 -185 -377 -160 -154 24 -235 99 -286 265 -12
41 -16 142 -19 568 l-5 517 -189 0 -189 0 0 -507z"/>
<path d="M4110 2956 l0 -826 190 0 190 0 0 225 0 225 175 0 c290 0 472 32 595
103 89 52 181 150 222 237 44 92 58 156 58 267 0 278 -170 485 -465 565 -75
20 -106 22 -522 26 l-443 4 0 -826z m893 476 c108 -54 152 -136 146 -274 -5
-97 -40 -158 -118 -205 -75 -45 -127 -53 -346 -53 l-195 0 0 286 0 285 223 -3
223 -3 67 -33z"/>
<path d="M5820 2955 l0 -825 185 0 185 0 0 224 0 223 233 6 c127 3 261 10 297
17 311 55 502 251 526 539 19 232 -102 452 -306 553 -153 77 -242 88 -727 88
l-393 0 0 -825z m829 501 c107 -29 181 -103 202 -203 32 -158 -41 -288 -189
-333 -55 -17 -93 -20 -268 -20 l-204 0 0 285 0 285 203 0 c143 0 218 -4 256
-14z"/>
<path d="M7520 2955 l0 -825 640 0 640 0 0 155 0 155 -450 0 -450 0 0 190 0
190 385 0 385 0 0 145 0 145 -385 0 -385 0 0 180 0 180 435 0 435 0 0 155 0
155 -625 0 -625 0 0 -825z"/>
<path d="M9110 2956 l0 -826 185 0 185 0 0 230 0 230 178 0 178 0 159 -230
159 -230 204 0 204 0 -17 26 c-9 14 -91 132 -181 261 -90 129 -164 237 -164
241 0 4 24 18 53 32 66 32 186 149 219 215 60 118 82 276 55 401 -47 222 -207
380 -452 445 -75 21 -108 22 -522 26 l-443 5 0 -826z m829 500 c107 -29 180
-103 202 -204 24 -113 -21 -245 -100 -298 -68 -45 -127 -54 -353 -54 l-208 0
0 285 0 285 203 0 c143 0 218 -4 256 -14z"/>
<path d="M2340 1415 l0 -245 180 0 180 0 0 45 0 45 -130 0 -130 0 0 55 0 55
115 0 115 0 0 45 0 45 -115 0 -115 0 0 55 0 54 128 3 127 3 0 40 0 40 -177 3
-178 2 0 -245z"/>
<path d="M2870 1414 l0 -245 53 3 52 3 5 140 5 140 115 -142 115 -143 43 0 42
0 0 245 0 245 -50 0 -49 0 -3 -151 -3 -150 -120 150 -120 150 -42 1 -43 0 0
-246z"/>
<path d="M3635 1648 c-104 -39 -168 -130 -167 -237 1 -200 205 -304 410 -209
l42 20 0 99 0 99 -50 0 -50 0 0 -70 c0 -66 -1 -71 -26 -80 -37 -14 -101 -12
-133 5 -16 8 -40 28 -55 45 -22 27 -26 41 -26 95 0 54 4 68 27 96 60 70 152
77 235 17 15 -11 22 -8 50 19 37 37 31 51 -36 85 -48 25 -174 34 -221 16z"/>
<path d="M4100 1415 l0 -245 176 0 175 0 -3 43 -3 42 -122 3 -123 3 0 199 0
200 -50 0 -50 0 0 -245z"/>
<path d="M4580 1415 l0 -245 55 0 55 0 0 245 0 245 -55 0 -55 0 0 -245z"/>
<path d="M4965 1647 c-78 -31 -105 -66 -105 -139 0 -73 44 -111 160 -138 80
-19 110 -36 110 -65 0 -56 -93 -72 -191 -31 l-57 23 -16 -34 c-9 -18 -16 -38
-16 -43 0 -19 115 -52 185 -53 129 -1 205 55 205 152 0 59 -43 102 -125 125
-117 32 -136 40 -146 58 -15 28 13 67 49 70 53 3 107 -4 134 -18 15 -8 29 -14
32 -14 9 0 36 71 31 80 -20 33 -188 51 -250 27z"/>
<path d="M5390 1415 l0 -245 55 0 55 0 0 100 0 100 110 0 110 0 0 -100 0 -100
50 0 49 0 3 228 c2 126 2 236 0 245 -3 13 -15 17 -53 17 l-49 0 0 -100 0 -100
-110 0 -110 0 0 100 0 100 -55 0 -55 0 0 -245z"/>
<path d="M6534 1603 c-83 -188 -184 -421 -184 -427 0 -3 24 -6 53 -6 l53 0 19
50 19 50 116 0 116 0 18 -50 18 -50 58 0 59 0 -58 133 c-32 72 -81 182 -108
242 l-49 110 -52 3 -52 3 -26 -58z m118 -153 l36 -90 -78 0 -79 0 37 90 c20
49 39 90 42 90 3 0 22 -41 42 -90z"/>
<path d="M7126 1644 c-99 -36 -156 -121 -156 -234 0 -104 49 -180 144 -221 73
-32 158 -30 230 5 78 38 82 46 42 85 l-33 32 -38 -25 c-46 -32 -102 -34 -160
-6 -52 25 -75 64 -75 130 0 88 45 143 126 156 36 5 54 1 100 -21 l56 -27 30
28 30 29 -36 31 c-20 17 -53 36 -74 42 -52 16 -138 14 -186 -4z"/>
<path d="M7606 1420 c-58 -132 -106 -242 -106 -245 0 -3 24 -5 54 -5 l53 0 21
50 21 50 113 0 114 0 21 -50 21 -50 56 0 c54 0 55 1 46 23 -20 50 -196 443
-203 455 -5 7 -29 12 -56 12 l-49 0 -106 -240z m215 -12 l19 -48 -75 0 c-41 0
-75 4 -75 9 0 5 9 28 19 52 11 24 27 62 36 84 l17 40 20 -45 c11 -25 28 -66
39 -92z"/>
<path d="M8160 1415 l0 -247 148 4 c170 4 213 18 274 86 44 49 62 108 55 178
-10 95 -54 156 -142 195 -42 19 -73 23 -192 27 l-143 5 0 -248z m295 132 c54
-30 77 -77 72 -145 -7 -98 -64 -142 -184 -142 l-73 0 0 155 0 155 73 0 c56 0
81 -5 112 -23z"/>
<path d="M8797 1653 c-4 -3 -7 -114 -7 -245 l0 -238 185 0 185 0 0 45 0 45
-130 0 -130 0 0 55 0 54 113 3 112 3 3 43 3 42 -115 0 -116 0 0 55 0 55 125 0
125 0 0 45 0 45 -173 0 c-96 0 -177 -3 -180 -7z"/>
<path d="M9330 1416 l0 -246 50 0 50 0 0 143 c1 164 -5 164 88 4 76 -130 85
-130 168 11 34 57 67 109 73 115 8 8 11 -26 11 -131 l0 -142 50 0 50 0 0 245
0 245 -44 0 -44 0 -78 -135 c-101 -174 -101 -174 -113 -155 -6 8 -46 76 -89
150 l-80 135 -46 3 -46 3 0 -245z"/>
<path d="M10001 1638 c6 -13 48 -84 93 -158 46 -78 82 -148 83 -165 1 -16 2
-56 2 -87 l1 -58 50 0 50 0 0 84 0 84 90 151 c50 84 90 156 90 162 0 5 -21 9
-48 9 l-47 0 -64 -110 c-36 -60 -67 -107 -70 -104 -3 3 -33 51 -66 107 l-61
102 -58 3 c-57 3 -57 3 -45 -20z"/>
</g>
</svg>
